<?xml version='1.0' encoding='iso-8859-1'?>
<!DOCTYPE svg PUBLIC '-//W3C//DTD SVG 1.1//EN' 'http://www.w3.org/Graphics/SVG/1.1/DTD/svg11.dtd'>
<!-- Uploaded to: SVG Repo, www.svgrepo.com, Generator: SVG Repo Mixer Tools -->
<svg fill="#000000" height="800px" width="800px" version="1.1" xmlns="http://www.w3.org/2000/svg" viewBox="0 0 278.907 278.907" xmlns:xlink="http://www.w3.org/1999/xlink" enable-background="new 0 0 278.907 278.907">
  <g>
    <path d="m39.749,168.196c3.313,0 6-2.687 6-6v-14.556h87.705v14.557c0,3.313 2.687,6 6,6s6-2.687 6-6v-14.557h87.705v14.557c0,3.313 2.687,6 6,6s6-2.687 6-6v-20.557c0-3.313-2.687-6-6-6h-93.705v-14.176c0-3.313-2.687-6-6-6s-6,2.687-6,6v14.176h-93.705c-3.313,0-6,2.687-6,6v20.557c0,3.313 2.686,5.999 6,5.999z"/>
    <path d="m113.205,201.678c0,14.474 11.775,26.249 26.249,26.249s26.249-11.775 26.249-26.249-11.775-26.249-26.249-26.249-26.249,11.776-26.249,26.249zm40.498,0c0,7.857-6.392,14.249-14.249,14.249s-14.249-6.392-14.249-14.249 6.392-14.249 14.249-14.249 14.249,6.392 14.249,14.249z"/>
    <path d="m159.504,233.04h-40.101c-10.862,0-19.698,8.836-19.698,19.698v14.801c0,3.313 2.687,6 6,6h67.497c3.313,0 6-2.687 6-6v-14.801c0-10.862-8.836-19.698-19.698-19.698zm-47.799,19.698c0-4.245 3.454-7.698 7.698-7.698h14.05v16.499h-21.749v-8.801zm55.498,8.801h-21.749v-16.499h14.05c4.245,0 7.698,3.454 7.698,7.698v8.801z"/>
    <path d="m139.454,57.866c14.474,0 26.249-11.775 26.249-26.249s-11.776-26.249-26.249-26.249-26.249,11.775-26.249,26.249 11.775,26.249 26.249,26.249zm0-40.498c7.857,3.55271e-15 14.249,6.392 14.249,14.249s-6.392,14.249-14.249,14.249-14.249-6.392-14.249-14.249 6.392-14.249 14.249-14.249z"/>
    <path d="m105.705,103.478h67.497c3.313,0 6-2.687 6-6v-14.8c0-10.862-8.836-19.698-19.698-19.698h-40.101c-10.862,0-19.698,8.836-19.698,19.698v14.8c1.42109e-14,3.314 2.687,6 6,6zm61.497-20.8v8.8h-21.749v-16.499h14.05c4.246,0 7.699,3.454 7.699,7.699zm-55.497,0c0-4.245 3.454-7.698 7.698-7.698h14.05v16.499h-21.749v-8.801z"/>
    <path d="m212.91,201.678c0,14.474 11.775,26.249 26.249,26.249s26.249-11.775 26.249-26.249-11.775-26.249-26.249-26.249-26.249,11.776-26.249,26.249zm40.498,0c0,7.857-6.392,14.249-14.249,14.249s-14.249-6.392-14.249-14.249 6.392-14.249 14.249-14.249 14.249,6.392 14.249,14.249z"/>
    <path d="m259.209,233.04h-40.101c-10.861,0-19.698,8.836-19.698,19.698v14.801c0,3.313 2.687,6 6,6h67.497c3.313,0 6-2.687 6-6v-14.801c0-10.862-8.836-19.698-19.698-19.698zm-47.798,19.698c0-4.245 3.453-7.698 7.698-7.698h14.05v16.499h-21.748v-8.801zm55.496,8.801h-21.749v-16.499h14.05c4.245,0 7.698,3.454 7.698,7.698v8.801z"/>
    <path d="m39.749,227.927c14.474,0 26.249-11.775 26.249-26.249s-11.775-26.249-26.249-26.249-26.249,11.776-26.249,26.249 11.775,26.249 26.249,26.249zm0-40.498c7.857,0 14.249,6.392 14.249,14.249s-6.392,14.249-14.249,14.249-14.249-6.392-14.249-14.249 6.392-14.249 14.249-14.249z"/>
    <path d="m59.799,233.04h-40.101c-10.862,0-19.698,8.836-19.698,19.698v14.801c0,3.313 2.687,6 6,6h67.497c3.313,0 6-2.687 6-6v-14.801c0-10.862-8.837-19.698-19.698-19.698zm-47.799,19.698c0-4.245 3.454-7.698 7.698-7.698h14.05v16.499h-21.748v-8.801zm55.497,8.801h-21.748v-16.499h14.05c4.245,0 7.698,3.454 7.698,7.698v8.801z"/>
  </g>
</svg>